HIERARCHY
ROOT Hips
{
	OFFSET 0.00000 0.00000 0.00000
	CHANNELS 6 Xposition Yposition Zposition Zrotation Yrotation Xrotation 
	JOINT LHipJoint
	{
		OFFSET 0 0 0
		CHANNELS 3 Zrotation Yrotation Xrotation
		JOINT LeftUpLeg
		{
			OFFSET 1.77779 -1.88989 0.48267
			CHANNELS 3 Zrotation Yrotation Xrotation
			JOINT LeftLeg
			{
				OFFSET 2.53442 -6.96327 0.00000
				CHANNELS 3 Zrotation Yrotation Xrotation
				JOINT LeftFoot
				{
					OFFSET 2.71068 -7.44755 0.00000
					CHANNELS 3 Zrotation Yrotation Xrotation
					JOINT LeftToeBase
					{
						OFFSET 0.17992 -0.49431 2.22524
						CHANNELS 3 Zrotation Yrotation Xrotation
						End Site
						{
							OFFSET 0.00000 -0.00000 1.14687
						}
					}
				}
			}
		}
	}
	JOINT RHipJoint
	{
		OFFSET 0 0 0
		CHANNELS 3 Zrotation Yrotation Xrotation
		JOINT RightUpLeg
		{
			OFFSET -1.58469 -1.88989 0.48267
			CHANNELS 3 Zrotation Yrotation Xrotation
			JOINT RightLeg
			{
				OFFSET -2.60386 -7.15404 0.00000
				CHANNELS 3 Zrotation Yrotation Xrotation
				JOINT RightFoot
				{
					OFFSET -2.73334 -7.50979 0.00000
					CHANNELS 3 Zrotation Yrotation Xrotation
					JOINT RightToeBase
					{
						OFFSET -0.25618 -0.70384 2.21822
						CHANNELS 3 Zrotation Yrotation Xrotation
						End Site
						{
							OFFSET -0.00000 -0.00000 1.16381
						}
					}
				}
			}
		}
	}
	JOINT LowerBack
	{
		OFFSET 0 0 0
		CHANNELS 3 Zrotation Yrotation Xrotation
		JOINT Spine
		{
			OFFSET 0.03410 2.01612 -0.22230
			CHANNELS 3 Zrotation Yrotation Xrotation
			JOINT Spine1
			{
				OFFSET 0.03465 2.03012 0.00937
				CHANNELS 3 Zrotation Yrotation Xrotation
				JOINT Neck
				{
					OFFSET 0 0 0
					CHANNELS 3 Zrotation Yrotation Xrotation
					JOINT Neck1
					{
						OFFSET -0.00219 1.70459 0.20857
						CHANNELS 3 Zrotation Yrotation Xrotation
						JOINT Head
						{
							OFFSET 0.02518 1.72339 -0.22179
							CHANNELS 3 Zrotation Yrotation Xrotation
							End Site
							{
								OFFSET 0.00282 1.74122 -0.09823
							}
						}
					}
				}
				JOINT LeftShoulder
				{
					OFFSET 0 0 0
					CHANNELS 3 Zrotation Yrotation Xrotation
					JOINT LeftArm
					{
						OFFSET 3.36358 1.00547 -0.37661
						CHANNELS 3 Zrotation Yrotation Xrotation
						JOINT LeftForeArm
						{
							OFFSET 5.06507 -0.00000 0.00000
							CHANNELS 3 Zrotation Yrotation Xrotation
							JOINT LeftHand
							{
								OFFSET 3.60196 -0.00000 0.00000
								CHANNELS 3 Zrotation Yrotation Xrotation
								JOINT LeftFingerBase
								{
									OFFSET 0 0 0
									CHANNELS 3 Zrotation Yrotation Xrotation
									JOINT LeftHandIndex1
									{
										OFFSET 0.45035 -0.00000 0.00000
										CHANNELS 3 Zrotation Yrotation Xrotation
										End Site
										{
											OFFSET 0.36308 -0.00000 0.00000
										}
									}
								}
								JOINT LThumb
								{
									OFFSET 0 0 0
									CHANNELS 3 Zrotation Yrotation Xrotation
									End Site
									{
										OFFSET 0.36862 -0.00000 0.36862
									}
								}
							}
						}
					}
				}
				JOINT RightShoulder
				{
					OFFSET 0 0 0
					CHANNELS 3 Zrotation Yrotation Xrotation
					JOINT RightArm
					{
						OFFSET -3.50159 0.80383 -0.71526
						CHANNELS 3 Zrotation Yrotation Xrotation
						JOINT RightForeArm
						{
							OFFSET -5.36394 -0.00000 0.00000
							CHANNELS 3 Zrotation Yrotation Xrotation
							JOINT RightHand
							{
								OFFSET -3.58035 -0.00000 0.00000
								CHANNELS 3 Zrotation Yrotation Xrotation
								JOINT RightFingerBase
								{
									OFFSET 0 0 0
									CHANNELS 3 Zrotation Yrotation Xrotation
									JOINT RightHandIndex1
									{
										OFFSET -0.66375 -0.00000 0.00000
										CHANNELS 3 Zrotation Yrotation Xrotation
										End Site
										{
											OFFSET -0.53513 -0.00000 0.00000
										}
									}
								}
								JOINT RThumb
								{
									OFFSET 0 0 0
									CHANNELS 3 Zrotation Yrotation Xrotation
									End Site
									{
										OFFSET -0.54330 -0.00000 0.54330
									}
								}
							}
						}
					}
				}
			}
		}
	}
}
MOTION
Frames: 10
Frame Time: .0083333
4.9423 17.9837 -29.229 0 0 0 0 0 0 -21 0 0 0 0 0 0 0 0 0 0 0 0 0 0 21 0 0 0 0 0 0 0 0 0 0 0 0 0 0 0 0 0 0 0 0 0 0 -16 0 0 21 0 0 11 0 0 0 -8 0 0 0 0 0 0 0 0 0 0 0 0 0 0 0 0 0 0 0 0 8 0 0 0 0 0 0 0 0 0 0 0 0 0 0 0 0 0
4.9423 17.9837 -29.2290 -4.8770 -1.8136 -2.8345 0.0000 0.0000 0.0000 -14.3340 -6.7329 -18.8413 10.6885 17.7792 61.7657 0.0000 0.0000 0.0000 0.0000 0.0000 0.0000 0.0000 0.0000 0.0000 30.8759 11.9287 -9.8223 -3.2199 -11.0428 32.4244 -0.6865 0.0089 -15.6575 -0.4869 -4.4744 12.4153 3.6052 0.1048 11.6647 2.5125 0.7318 1.4589 0.4825 0.3123 -5.0034 -0.7356 -3.3351 -21.6900 -0.3420 -4.3109 20.5385 -0.6409 -2.0853 10.1389 0.0000 0.0000 0.0000 -83.2236 -3.3008 32.8026 14.1663 -22.9719 -2.8927 -0.0000 0.0000 -7.6078 31.1800 16.8152 9.9296 -7.1250 0.0000 -0.0000 3.2998 49.4064 0.3589 0.0000 0.0000 0.0000 89.1043 3.7627 12.1725 -13.6361 22.2121 -2.6890 0.0000 0.0000 2.6206 -14.0098 11.1066 -2.7518 7.1250 -0.0000 -0.0000 9.2037 -18.6231 5.8586
4.9475 17.9702 -29.0619 -4.7617 -2.0704 -2.8416 0.0000 0.0000 0.0000 -14.2987 -6.8212 -19.7656 10.4132 17.6358 60.8607 0.0000 0.0000 0.0000 0.0000 0.0000 0.0000 0.0000 0.0000 0.0000 30.8712 11.7123 -9.3390 -3.2686 -11.1176 32.6776 -0.7628 0.3927 -16.3770 -0.4807 -4.4461 12.3352 3.5396 0.1469 11.4374 2.4902 0.7687 1.3803 0.4910 0.3316 -4.9595 -1.0005 -3.1715 -20.6411 -0.1226 -4.0587 20.0983 -0.4588 -1.9712 9.8025 -0.0000 -0.0000 0.0000 -83.4507 -2.6428 32.5012 14.0878 -22.8601 -2.8621 -0.0000 0.0000 -7.7646 29.3139 29.7901 15.5872 -7.1250 0.0000 -0.0000 -2.1568 63.2540 -0.9556 -0.0000 -0.0000 0.0000 88.7825 3.5491 13.2878 -13.9576 22.6740 -2.8117 0.0000 0.0000 2.0207 -13.8767 10.5679 -2.5942 7.1250 -0.0000 -0.0000 9.3099 -19.1773 5.8119
4.9518 17.9651 -28.8970 -4.9117 -2.3480 -2.8383 0.0000 0.0000 0.0000 -13.9714 -6.8848 -20.5980 10.0816 17.4555 59.7608 0.0000 0.0000 0.0000 0.0000 0.0000 0.0000 0.0000 0.0000 0.0000 31.1593 11.4390 -8.8267 -3.2824 -11.1388 32.7493 -0.8145 0.5629 -16.8754 -0.4702 -4.3978 12.1987 3.5853 0.1397 11.6477 2.6520 0.8062 0.9212 0.6301 0.3402 -5.5620 -1.5322 -3.1825 -18.6803 0.0422 -3.9790 19.6754 -0.2649 -1.9676 9.3140 0.0000 0.0000 0.0000 -83.8522 -1.1678 32.2391 14.0828 -22.8529 -2.8602 -0.0000 0.0000 -8.2754 25.7974 36.0127 15.8652 -7.1250 0.0000 -0.0000 -11.1910 68.5907 -6.3636 0.0000 0.0000 0.0000 88.3093 2.6599 14.7335 -14.3102 23.1764 -2.9491 0.0000 0.0000 1.6289 -15.2857 13.5959 -3.6759 7.1250 -0.0000 -0.0000 8.2961 -16.0015 5.7491
4.9553 17.9608 -28.7321 -5.0238 -2.5632 -2.8073 0.0000 0.0000 0.0000 -13.6957 -7.0587 -21.4402 9.7399 17.2610 58.6155 0.0000 0.0000 0.0000 0.0000 0.0000 0.0000 0.0000 0.0000 0.0000 31.3939 11.2721 -8.3377 -3.3087 -11.1787 32.8849 -0.8620 0.6324 -17.3455 -0.3992 -4.0564 11.2353 3.6524 0.1458 11.8561 2.7290 0.8666 0.3456 0.6658 0.3564 -6.2881 -1.9509 -3.1506 -16.3584 0.2078 -3.9020 19.1970 -0.0856 -1.9571 8.7417 -0.0000 -0.0000 0.0000 -84.1119 0.5448 32.0110 14.1915 -23.0078 -2.9025 -0.0000 0.0000 -8.5962 25.9961 38.1896 16.7779 -7.1250 0.0000 -0.0000 -13.3885 70.7630 -8.2775 -0.0000 -0.0000 0.0000 87.9825 1.5405 16.1281 -14.6867 23.7079 -3.0989 0.0000 0.0000 1.5966 -17.9342 19.2285 -6.0842 7.1250 -0.0000 -0.0000 6.6833 -9.9550 5.4656
4.9607 17.9511 -28.5707 -5.1435 -2.7195 -2.7392 0.0000 0.0000 0.0000 -13.3914 -7.3116 -22.3041 9.3427 17.0233 57.2680 0.0000 0.0000 0.0000 0.0000 0.0000 0.0000 0.0000 0.0000 0.0000 31.6278 11.2094 -7.7343 -3.2858 -11.1439 32.7667 -0.9094 0.6652 -17.8134 -0.3529 -3.8168 10.5620 4.0516 0.2776 11.6910 2.5265 1.0506 0.8000 0.1968 0.4443 -5.7001 -1.6521 -3.1921 -17.8235 0.2709 -4.0245 19.4320 -0.1557 -1.9771 9.0828 0.0000 0.0000 0.0000 -83.7856 -0.0224 32.3203 14.3127 -23.1800 -2.9501 -0.0000 0.0000 -8.8297 32.4904 21.7545 13.2805 -7.1250 0.0000 -0.0000 4.0300 55.2534 1.0157 0.0000 0.0000 0.0000 88.1310 2.7541 16.5426 -14.8450 23.9298 -3.1628 0.0000 0.0000 1.5421 -19.5605 21.3829 -7.3813 7.1250 -0.0000 -0.0000 5.7754 -7.5100 4.9971
4.9679 17.9212 -28.4133 -5.3557 -2.8596 -2.6392 0.0000 0.0000 0.0000 -12.9568 -7.4951 -23.2314 8.9248 16.7591 55.8296 0.0000 0.0000 0.0000 0.0000 0.0000 0.0000 0.0000 0.0000 0.0000 31.9661 11.1327 -7.1344 -3.2470 -11.0845 32.5653 -0.9567 0.6580 -18.2797 -0.3715 -3.9148 10.8370 4.4244 0.3772 11.7521 2.4284 1.2268 0.8561 -0.1448 0.5213 -5.6607 -1.4453 -3.2575 -18.1117 0.2775 -4.1688 19.4107 -0.2108 -2.0267 9.1241 -0.0000 -0.0000 0.0000 -83.6454 0.2437 32.4546 14.3965 -23.2986 -2.9831 -0.0000 0.0000 -8.9785 35.2981 14.3194 9.9321 -7.1250 0.0000 -0.0000 7.5220 47.2056 0.4116 -0.0000 -0.0000 0.0000 88.1417 3.2269 16.8943 -15.0742 24.2493 -3.2563 0.0000 0.0000 1.2023 -19.5860 21.0295 -7.2762 7.1250 -0.0000 -0.0000 5.7334 -7.8725 4.9194
4.9767 17.9525 -28.2393 -5.4951 -3.1656 -2.4700 0.0000 0.0000 0.0000 -12.6685 -7.6945 -23.8108 8.4148 16.4161 54.0435 0.0000 0.0000 0.0000 0.0000 0.0000 0.0000 0.0000 0.0000 0.0000 32.1945 11.0997 -6.3794 -3.1758 -10.9744 32.1936 -1.0031 0.7322 -18.7023 -0.3539 -3.8220 10.5763 4.7247 0.5490 11.5969 2.3686 1.4375 1.6825 -0.4046 0.6450 -4.6864 -1.0761 -3.3152 -21.6554 0.0678 -4.2645 20.0427 -0.4270 -2.0435 9.9736 0.0000 0.0000 0.0000 -83.6923 -1.3558 32.2120 14.2460 -23.0852 -2.9239 -0.0000 0.0000 -8.8344 36.8141 8.8743 6.5866 -7.1250 0.0000 -0.0000 8.7847 40.8588 -0.9050 0.0000 0.0000 0.0000 88.0038 5.5679 17.0782 -15.0978 24.2822 -3.2661 0.0000 0.0000 1.0346 -19.6072 21.2123 -7.3444 7.1250 -0.0000 -0.0000 5.7332 -7.6800 4.9410
4.9849 17.9611 -28.0645 -5.5415 -3.6561 -2.4852 0.0000 0.0000 0.0000 -12.4885 -7.7094 -24.1826 7.9043 16.0484 52.2172 0.0000 0.0000 0.0000 0.0000 0.0000 0.0000 0.0000 0.0000 0.0000 32.3627 11.0136 -5.4198 -3.1019 -10.8582 31.8033 -1.0304 1.0668 -18.8608 -0.2987 -3.5141 9.7134 4.7559 0.7530 11.6440 2.3938 1.7340 1.3351 -0.4440 0.7788 -5.0664 -0.8987 -3.0592 -20.1814 -0.0221 -3.9518 19.2176 -0.4067 -1.9089 9.4087 -0.0000 -0.0000 0.0000 -83.8961 -0.1533 32.1246 14.2119 -23.0369 -2.9105 -0.0000 0.0000 -8.8889 37.5321 4.8780 3.7376 -7.1250 0.0000 -0.0000 9.1072 35.9950 -2.0369 -0.0000 -0.0000 0.0000 87.7583 4.8253 17.6327 -15.4752 24.8040 -3.4228 0.0000 0.0000 0.6449 -19.5892 21.2798 -7.3592 7.1250 -0.0000 -0.0000 5.7496 -7.6126 4.9630
4.9888 17.9527 -27.9014 -5.7621 -3.9854 -2.5286 0.0000 0.0000 0.0000 -12.0774 -7.7470 -24.5684 7.3809 15.6445 50.3008 0.0000 0.0000 0.0000 0.0000 0.0000 0.0000 0.0000 0.0000 0.0000 32.7312 10.8752 -4.4522 -3.0095 -10.7104 31.3093 -1.0446 1.3181 -18.9231 -0.2958 -3.4974 9.6668 4.7125 0.7688 11.8445 2.6692 1.7941 1.0423 -0.1457 0.8000 -5.4958 -1.5049 -3.2064 -18.3578 -0.0540 -3.9933 18.8671 -0.2893 -1.9868 8.9731 -0.0000 0.0000 0.0000 -84.4302 1.0075 31.5502 14.1485 -22.9466 -2.8857 -0.0000 0.0000 -8.6398 37.4477 2.6466 2.0254 -7.1250 0.0000 -0.0000 8.8281 33.2184 -2.5753 -0.0000 0.0000 0.0000 87.1550 4.2163 18.7214 -15.8039 25.2541 -3.5619 0.0000 -0.0000 -0.0220 -19.5771 21.5511 -7.4427 7.1250 -0.0000 -0.0000 5.7775 -7.3334 5.0190
